# xmcd
#
# Track frame offsets: 
#        150
#        22187
#        36032
#        51525
#        73250
#        90305
#        112897
#        129287
#        147012
#        160315
#        175855
#        195052
#        207182
#
# Disc length: 2903 seconds
#
# Revision: 5
# Processed by: cddbd v1.5.2PL0 Copyright (c) Steve Scherf et al.
# Submitted via: ExactAudioCopyFreeDBPlugin 1.0
#
DISCID=ab0b550d
DTITLE=B.B. King - The Best Of B.B. King  The Christmas Collection
DYEAR=2003
DGENRE=Blues
TTITLE0=Please Come Home For Christmas
TTITLE1=Lonesome Christmas
TTITLE2=Back Door Santa
TTITLE3=Christmas In Heaven
TTITLE4=I'll Be Home For Christmas
TTITLE5=To Someone That I Love
TTITLE6=Christmas Celebration
TTITLE7=Merry Christmas Baby
TTITLE8=Christmas Love
TTITLE9=Blue Decorations
TTITLE10=Christmas Comes But Once A Year
TTITLE11=Bringing In A Brand New Year
TTITLE12=Auld Lang Syne
EXTD=2001 MCA Records\n\nwww.bbking.com
EXTT0=
EXTT1=
EXTT2=
EXTT3=
EXTT4=
EXTT5=
EXTT6=
EXTT7=
EXTT8=
EXTT9=
EXTT10=
EXTT11=
EXTT12=
PLAYORDER=
